<svg width="140" height="141" viewBox="0 0 140 141" fill="none" xmlns="http://www.w3.org/2000/svg">
<g id="no-data 1" clip-path="url(#clip0_954_2340)">
<g id="Clip path group">
<mask id="mask0_954_2340" style="mask-type:luminance" maskUnits="userSpaceOnUse" x="0" y="0" width="140" height="141">
<g id="clip0_1_577">
<path id="Vector" d="M140 0.5H0V140.5H140V0.5Z" fill="white"/>
</g>
</mask>
<g mask="url(#mask0_954_2340)">
<g id="Group">
<g id="Clip path group_2">
<mask id="mask1_954_2340" style="mask-type:luminance" maskUnits="userSpaceOnUse" x="7" y="0" width="133" height="133">
<g id="clip1_1_577">
<path id="Vector_2" d="M140 0.5H7.77783V132.722H140V0.5Z" fill="white"/>
</g>
</mask>
<g mask="url(#mask1_954_2340)">
<g id="Group_2">
<path id="Vector_3" fill-rule="evenodd" clip-rule="evenodd" d="M75.6254 0.514961C75.3961 0.558712 74.8073 0.757122 74.5109 0.890469C74.3552 0.960525 74.219 1.01786 74.2083 1.01786C74.1113 1.01786 72.665 1.91645 72.5682 2.03686C72.5535 2.05516 72.4213 2.15351 72.2746 2.25529C72.1278 2.35713 71.8853 2.53707 71.7357 2.65517C71.586 2.77327 71.3826 2.93029 71.2835 3.00411C71.1047 3.13735 70.4704 3.6571 70.2027 3.88965C69.8721 4.1768 67.9063 5.78228 67.0438 6.46942C65.8557 7.4161 65.9198 7.36409 65.817 7.46458C65.769 7.5115 65.597 7.65306 65.4348 7.77916C65.2725 7.9052 65.0191 8.11194 64.8716 8.23846C64.7241 8.36505 64.2897 8.72843 63.9062 9.04596C63.5227 9.36349 63.1968 9.63866 63.1821 9.65751C63.1673 9.67635 62.8525 9.94444 62.4824 10.2533C61.881 10.7553 61.1496 11.3766 60.3663 12.051C60.2188 12.1779 59.736 12.5997 59.2936 12.9881C58.2028 13.9457 57.6628 14.3432 56.7459 14.8638C56.3182 15.1066 55.8234 15.3914 55.6464 15.4966C55.4694 15.6018 55.0108 15.8739 54.6273 16.1012C53.8402 16.5678 52.31 17.4981 52.026 17.6826C51.3738 18.1064 51.0612 18.3036 51.0416 18.3036C51.0293 18.3036 50.8776 18.396 50.7047 18.5091C50.5317 18.6221 50.2695 18.7914 50.122 18.8852C49.9745 18.9791 49.8176 19.08 49.7733 19.1093C49.7291 19.1387 49.536 19.2632 49.3443 19.3859C48.6812 19.8104 48.2422 20.094 47.6279 20.4949C47.2887 20.7162 46.7698 21.0539 46.4748 21.2452C46.1798 21.4365 45.764 21.7105 45.5508 21.854C45.3377 21.9976 45.1406 22.115 45.1128 22.115C45.0851 22.115 45.0544 22.1348 45.0445 22.1588C45.0347 22.1828 44.387 22.6299 43.6053 23.1522C41.8436 24.3294 41.3408 24.6693 41.2722 24.7296C41.217 24.7781 40.7485 25.106 40.5976 25.2018C40.4273 25.3099 39.7561 25.7776 39.2072 26.1707C38.8975 26.3925 38.451 26.7057 38.215 26.8666C37.979 27.0275 37.6235 27.2743 37.4251 27.4151C37.2265 27.556 36.6594 27.9535 36.1646 28.2987C35.6698 28.6438 35.1202 29.0277 34.9432 29.1518C34.7663 29.2759 34.5142 29.4525 34.3831 29.5443C34.2519 29.636 33.7883 29.9648 33.3528 30.2748C32.9172 30.5848 32.401 30.9471 32.2056 31.08C32.0102 31.2129 31.8222 31.3457 31.7877 31.3753C31.7533 31.4048 31.6165 31.5088 31.4838 31.6063C30.776 32.1265 30.2112 32.5402 30.1161 32.6081C29.9242 32.7452 28.3606 33.9095 27.7918 34.3389C27.487 34.569 27.1853 34.7929 27.1214 34.8363C27.0575 34.8799 26.8815 35.0127 26.7302 35.1316C26.5789 35.2505 26.3978 35.3889 26.3279 35.4391C26.258 35.4894 26.1283 35.5898 26.0398 35.6621C25.6496 35.9811 23.4943 37.7036 22.8932 38.1768C21.7631 39.0664 21.0815 39.8101 20.7097 40.5588C20.425 41.1324 20.381 41.3105 20.3465 42.0312C20.3093 42.8063 20.3973 43.2529 20.7125 43.8898C20.8881 44.2444 21.0383 44.4507 21.3459 44.7595C21.8128 45.2284 21.9008 45.3057 21.9681 45.3061C21.9951 45.3063 22.0891 45.364 22.177 45.4344L22.3368 45.5623L22.177 45.699C22.0275 45.8268 21.4515 46.2986 21.025 46.6428C19.5788 47.8095 18.7951 48.6061 18.1418 49.5736C17.7975 50.0834 17.3778 50.9484 17.3778 51.148C17.3778 51.3078 17.2134 51.1806 17.0254 50.8754C16.7666 50.4552 16.194 49.8873 15.8375 49.6974C14.6852 49.0834 13.3808 49.4185 12.7663 50.4862C12.5895 50.7934 12.4453 51.3921 12.4443 51.8239C12.4433 52.2142 12.5599 53.1791 12.6848 53.8145C12.7254 54.0212 12.786 54.3715 12.8193 54.5929C12.8527 54.8144 12.902 55.068 12.9289 55.1566C12.9557 55.2452 13.0126 55.535 13.0553 55.8008C13.0981 56.0665 13.1939 56.6463 13.2683 57.0891C13.3427 57.532 13.4409 58.1239 13.4864 58.4044C13.532 58.6849 13.6055 59.1076 13.6496 59.3438C13.7243 59.7433 13.8096 60.2969 13.9539 61.3173C14.0069 61.6924 14.0016 61.7674 13.9007 62.0688C13.6823 62.721 13.6555 63.2425 13.7276 65.4307C13.7642 66.5412 13.8148 67.6793 13.84 67.9598C13.8653 68.2403 13.9228 69.0617 13.9678 69.785C14.0128 70.5084 14.0755 71.2935 14.1073 71.5297C14.139 71.7659 14.1989 72.394 14.2402 72.9255C14.3252 74.017 14.4551 75.4272 14.537 76.1464C14.5674 76.4121 14.6272 76.9436 14.6701 77.3274C14.713 77.7113 14.7847 78.3152 14.8293 78.6695C14.874 79.0238 14.9358 79.5794 14.9668 79.9042C14.9978 80.229 15.0569 80.7121 15.0983 80.9778C15.1396 81.2436 15.1889 81.6421 15.2079 81.8636C15.2268 82.085 15.2634 82.3508 15.2891 82.4541C15.3148 82.5574 15.3722 82.9198 15.4167 83.2593C15.4612 83.5989 15.5344 84.1182 15.5796 84.4135C15.6248 84.7088 15.7223 85.3489 15.7963 85.8361C15.8703 86.3232 15.957 86.8789 15.9889 87.0708C16.0209 87.2627 16.0919 87.7096 16.1467 88.0639C16.33 89.2476 16.4598 90.0264 16.4891 90.1192C16.5051 90.1698 16.5663 90.4649 16.6251 90.7749C16.8418 91.9181 17.0893 92.8852 17.353 93.62C17.5401 94.1411 18.0656 95.3237 18.1917 95.5072C18.2455 95.5856 18.2896 95.6643 18.2896 95.6822C18.2896 95.7 18.4185 95.9137 18.576 96.157C18.8679 96.6077 19.4396 97.211 19.8079 97.4571C20.2919 97.7804 21.0039 98.0545 21.5065 98.1108C21.6694 98.1291 21.8509 98.1689 21.9099 98.1992C21.9689 98.2296 22.5759 98.8121 23.2587 99.4938C24.5605 100.793 24.9361 101.155 25.8553 101.998C26.1633 102.28 26.7532 102.822 27.1662 103.203C27.5792 103.583 28.0112 103.98 28.1263 104.085C28.2414 104.19 28.3741 104.312 28.4213 104.357C28.5485 104.476 29.7341 105.558 30.2447 106.021C30.489 106.242 30.7547 106.484 30.8351 106.557C30.9155 106.631 31.1223 106.812 31.2948 106.96C31.4673 107.108 31.6347 107.254 31.6667 107.284C31.6989 107.315 31.882 107.468 32.0738 107.625C32.2655 107.782 32.4465 107.938 32.476 107.973C32.5055 108.008 32.6504 108.132 32.7978 108.25C32.9453 108.367 33.0781 108.477 33.0928 108.493C33.1076 108.51 33.3369 108.704 33.6024 108.924C34.1407 109.371 34.3113 109.514 34.5908 109.756C34.6962 109.847 35.1927 110.256 35.6941 110.664C36.1956 111.072 36.6612 111.463 36.7288 111.532C36.7963 111.601 36.8687 111.657 36.8897 111.658C36.9106 111.658 37.0002 111.725 37.0887 111.806C37.1771 111.888 37.4426 112.11 37.6786 112.299C37.9146 112.489 38.1439 112.675 38.1882 112.713C38.6044 113.07 39.6653 113.904 40.6001 114.61C41.0499 114.949 41.463 115.263 41.518 115.308C41.573 115.352 41.7046 115.449 41.8105 115.522C41.9164 115.596 42.1282 115.754 42.2812 115.872C42.8197 116.289 44.7457 117.705 45.8593 118.502C45.9418 118.561 46.1623 118.716 46.3493 118.846C46.5363 118.976 46.7014 119.097 46.7161 119.114C46.7309 119.132 46.8487 119.219 46.978 119.307C47.1074 119.396 47.409 119.606 47.6485 119.774C48.0402 120.049 49.645 121.151 49.8705 121.299C49.9203 121.332 50.5403 121.739 51.2483 122.204C51.9563 122.668 52.6924 123.152 52.8842 123.279C53.5808 123.741 55.4243 124.893 56.0218 125.24C56.2283 125.36 56.7834 125.685 57.2554 125.961C57.7274 126.238 58.8256 126.866 59.6958 127.356C60.566 127.847 61.3143 128.271 61.3585 128.299C61.5671 128.429 66.4277 130.822 66.4834 130.822C66.4955 130.822 66.705 130.915 66.9489 131.03C67.6637 131.365 68.0189 131.52 68.07 131.52C68.0962 131.52 68.22 131.566 68.3451 131.622C68.6401 131.755 69.897 132.192 70.2083 132.269C70.341 132.303 70.4979 132.351 70.5569 132.378C70.6159 132.404 70.8935 132.464 71.1737 132.512C71.454 132.559 71.8281 132.626 72.0051 132.66C72.4336 132.742 74.7768 132.744 75.0623 132.662C75.1803 132.628 75.4216 132.561 75.5986 132.513C75.7756 132.465 76.0773 132.364 76.269 132.288C77.8757 131.657 78.9985 130.784 79.7803 129.56C80.0554 129.13 80.1585 129.021 80.5062 128.792C80.6685 128.686 80.9702 128.464 81.1766 128.3C81.3831 128.136 81.6486 127.939 81.7666 127.863C82.2724 127.537 82.8044 127.225 82.8556 127.225C82.886 127.225 82.9189 127.207 82.9287 127.184C82.9444 127.148 83.0958 127.051 83.9148 126.554C84.1388 126.418 84.7864 126.009 85.0812 125.817C85.2051 125.736 85.3428 125.653 85.387 125.633C85.4312 125.612 85.5278 125.555 85.6015 125.505C85.6753 125.455 85.8804 125.323 86.0574 125.211C86.2344 125.099 86.6568 124.826 86.9961 124.605C87.8176 124.07 88.0597 123.917 88.5076 123.655C88.8209 123.472 89.6972 122.98 89.946 122.848C90.1082 122.762 90.3617 122.625 90.5091 122.544C90.6566 122.462 90.8377 122.366 90.9114 122.329C90.9852 122.293 91.7092 121.892 92.5205 121.437C93.3317 120.982 94.1885 120.502 94.4245 120.37C94.6605 120.238 94.8898 120.108 94.934 120.08C94.9783 120.052 95.111 119.98 95.229 119.921C95.347 119.861 95.528 119.762 95.6313 119.7C95.7345 119.638 95.9276 119.527 96.0604 119.453C96.1931 119.38 96.3983 119.263 96.5163 119.195C96.6343 119.127 96.8394 119.013 96.9722 118.942C97.2552 118.792 100.287 117.1 100.405 117.026C100.449 116.998 100.773 116.812 101.124 116.611C101.474 116.411 101.824 116.21 101.901 116.165C101.978 116.12 102.222 115.98 102.443 115.854C102.664 115.727 102.882 115.603 102.926 115.577C102.97 115.551 103.248 115.394 103.543 115.228C103.838 115.062 104.115 114.905 104.159 114.878C104.225 114.839 106.51 113.544 107.351 113.07C107.469 113.004 107.698 112.88 107.86 112.795C108.023 112.71 108.421 112.489 108.745 112.303C109.07 112.118 109.492 111.882 109.684 111.778C109.876 111.675 110.069 111.562 110.113 111.528C110.157 111.493 110.278 111.424 110.381 111.373C110.484 111.322 110.653 111.228 110.757 111.165C110.86 111.101 111.033 110.998 111.142 110.937C111.25 110.876 111.773 110.578 112.304 110.275C112.835 109.972 113.331 109.725 113.405 109.725C113.479 109.725 113.571 109.767 113.61 109.819C113.678 109.911 113.918 110.08 114.302 110.307C114.936 110.682 115.9 110.858 116.717 110.747C116.994 110.71 117.37 110.622 117.555 110.553C117.918 110.417 118.534 110.073 118.748 109.887C119.737 109.026 120.294 108.249 121.093 106.611C121.451 105.877 121.574 105.614 121.859 104.974C122.015 104.624 122.225 104.157 122.317 103.954C122.52 103.509 122.908 102.58 123.191 101.86C123.769 100.391 124.433 98.748 124.487 98.6535C124.517 98.6022 124.541 98.5346 124.541 98.5033C124.541 98.4719 124.589 98.3463 124.648 98.2241C124.707 98.1018 124.755 97.9808 124.755 97.9551C124.755 97.9293 124.89 97.5655 125.055 97.1465C125.448 96.1467 126.254 94.1199 126.34 93.9153C126.441 93.6753 126.656 93.1147 126.845 92.6001C126.937 92.3491 127.034 92.0955 127.06 92.0364C127.087 91.9774 127.139 91.8324 127.177 91.7143C127.214 91.5962 127.261 91.4754 127.28 91.4459C127.3 91.4164 127.358 91.2594 127.41 91.097C127.462 90.9346 127.518 90.7791 127.534 90.7515C127.56 90.7067 127.712 90.2868 128.11 89.1644C128.178 88.9725 128.332 88.5377 128.452 88.1981C128.573 87.8586 128.693 87.5324 128.721 87.4734C128.748 87.4143 128.798 87.2694 128.832 87.1513C128.865 87.0332 128.914 86.8883 128.94 86.8292C129.013 86.6641 129.797 84.2708 129.797 84.2126C129.797 84.1844 129.83 84.0852 129.871 83.9921C129.911 83.8991 130.191 83.062 130.493 82.132C130.794 81.202 131.06 80.3927 131.085 80.3336C131.14 80.2008 131.567 78.8391 131.758 78.1863C131.836 77.9206 131.943 77.5583 131.996 77.3811C132.095 77.0526 132.301 76.3378 132.49 75.6633C132.548 75.4566 132.641 75.1305 132.696 74.9386C132.751 74.7466 132.872 74.3118 132.964 73.9723C133.056 73.6327 133.163 73.2462 133.203 73.1133C133.242 72.9805 133.398 72.3645 133.548 71.7444C133.699 71.1244 133.848 70.5205 133.878 70.4024C133.909 70.2843 133.978 69.9702 134.032 69.7045C134.14 69.1695 134.257 68.6104 134.38 68.0404C134.767 66.2441 134.94 64.8721 134.978 63.3163C134.995 62.6077 134.986 61.7754 134.958 61.4667C134.907 60.9077 134.962 60.385 135.104 60.0954C135.133 60.0363 135.192 59.8551 135.236 59.6927C135.28 59.5304 135.366 59.2289 135.426 59.0229C135.487 58.8169 135.536 58.6211 135.536 58.5878C135.536 58.5546 135.264 58.3008 134.933 58.0238C134.601 57.7468 134.245 57.4443 134.141 57.3516C134.038 57.2589 133.604 56.8842 133.177 56.5188C132.75 56.1534 132.362 55.8182 132.315 55.7739C132.268 55.7296 131.98 55.476 131.675 55.2103C131.37 54.9445 131.056 54.6667 130.976 54.5929C130.896 54.5191 130.618 54.2654 130.359 54.0292C128.98 52.7736 127.955 51.7839 125.664 49.4937C123.71 47.5405 122.613 46.3996 120.942 44.5843C120.753 44.3793 120.452 44.0532 120.272 43.8596C120.092 43.666 119.851 43.4009 119.735 43.2705C119.62 43.1403 119.441 42.9446 119.338 42.8359C119.235 42.7271 118.994 42.4611 118.802 42.2446C118.61 42.0282 118.405 41.7998 118.346 41.737C118.287 41.6743 118.009 41.3608 117.729 41.0404C117.449 40.7199 117.159 40.3929 117.086 40.3137C117.012 40.2345 116.875 40.084 116.781 39.9793C116.502 39.6659 114.821 37.7787 114.618 37.5507C114.515 37.4343 114.382 37.2881 114.323 37.2255C114.264 37.163 114.011 36.8843 113.76 36.606C113.509 36.3278 113.28 36.0739 113.251 36.0418C113.221 36.0096 113.04 35.8061 112.848 35.5893C112.657 35.3726 112.464 35.1559 112.419 35.1079C112.375 35.0598 112.245 34.9129 112.13 34.7815C112.015 34.6501 111.81 34.4215 111.674 34.2736C111.538 34.1258 111.321 33.8842 111.191 33.7368C110.928 33.4382 110.252 32.6837 110.086 32.5041C110.027 32.4402 109.774 32.1611 109.523 31.884C109.272 31.6069 109.031 31.341 108.987 31.2931C108.942 31.2453 108.701 30.9817 108.45 30.7074C108.2 30.4331 107.91 30.1193 107.807 30.0101C107.703 29.9008 107.488 29.6681 107.327 29.4929C107.167 29.3177 106.865 28.9926 106.657 28.7704C106.448 28.5483 106.037 28.1037 105.742 27.7824C105.447 27.4611 105.097 27.084 104.964 26.9445C104.831 26.805 104.568 26.5248 104.379 26.322C104.189 26.1193 103.803 25.7111 103.521 25.415C103.238 25.119 102.584 24.4326 102.068 23.8897C100.237 21.9648 94.1694 15.9221 92.3405 14.2026C92.2182 14.0876 91.8871 13.7736 91.6046 13.5047C91.322 13.2359 90.7081 12.6535 90.2403 12.2106C89.7724 11.7678 89.1735 11.2001 88.9093 10.9491C88.6452 10.6981 88.3774 10.4445 88.3143 10.3854C86.329 8.52636 84.572 6.74964 83.6975 5.71706C83.3393 5.29398 83.2103 5.17282 82.893 4.96131C82.7455 4.86297 82.3418 4.56959 81.9958 4.30934C81.1758 3.69253 80.4931 3.21884 80.1513 3.02955C79.9086 2.89513 79.8498 2.82534 79.6439 2.42632C79.2331 1.63032 78.5467 1.01281 77.6904 0.668922C77.3481 0.531495 77.2462 0.516893 76.5372 0.503741C76.1095 0.49585 75.6992 0.500842 75.6254 0.514961Z" fill="#9146FF"/>
</g>
</g>
</g>
<g id="Clip path group_3">
<mask id="mask2_954_2340" style="mask-type:luminance" maskUnits="userSpaceOnUse" x="0" y="32" width="108" height="109">
<g id="clip2_1_577">
<path id="Vector_4" d="M108 32.5H0V140.5H108V32.5Z" fill="white"/>
</g>
</mask>
<g mask="url(#mask2_954_2340)">
<g id="Group_3">
<path id="Vector_5" fill-rule="evenodd" clip-rule="evenodd" d="M57.7444 37.345C52.8052 36.5267 47.7054 36.9543 43.5842 38.6626C42.9169 38.9393 42.1516 38.6226 41.875 37.9552C41.5983 37.2878 41.915 36.5226 42.5824 36.2459C47.2325 34.3183 52.84 33.8807 58.172 34.764C63.5032 35.6472 68.6793 37.8712 72.4222 41.4031C81.3308 49.8095 86.678 62.8704 87.0331 75.111C87.2689 83.2401 86.8505 91.3734 87.0863 99.5008C87.2568 105.377 87.422 111.179 87.2663 117.053C87.1979 119.632 85.0847 120.642 82.7941 120.709C82.072 120.73 81.4696 120.161 81.4487 119.439C81.4277 118.717 81.9962 118.115 82.7183 118.094C83.5682 118.069 84.6231 118.038 84.651 116.984C84.8055 111.157 84.6404 105.407 84.4712 99.5766C84.2355 91.4491 84.6539 83.316 84.4181 75.1869C84.0828 63.6282 79.0384 51.2433 70.6267 43.3059C67.3431 40.2074 62.6843 38.1633 57.7444 37.345Z" fill="#F5F500"/>
<g id="Clip path group_4">
<mask id="mask3_954_2340" style="mask-type:luminance" maskUnits="userSpaceOnUse" x="0" y="32" width="108" height="109">
<g id="clip3_1_577">
<path id="Vector_6" d="M108 32.5H0V140.5H108V32.5Z" fill="white"/>
</g>
</mask>
<g mask="url(#mask3_954_2340)">
<g id="Group_4">
<path id="Vector_7" d="M81.2868 60.2444C83.0117 67.4647 83.395 84.3756 83.5866 91.026V102.807C83.5866 108.127 83.5866 114.967 81.2868 117.817C78.9869 120.668 74.0039 116.487 71.7041 114.967C69.4043 113.447 65.5712 110.597 64.2296 114.967C62.888 119.337 59.0549 123.328 54.8386 122.188C50.6222 121.048 44.6809 114.967 42.1894 114.967C39.6979 114.967 38.3563 119.337 34.1399 119.717C29.9235 120.097 26.6654 115.727 24.9405 107.937C23.2157 100.147 22.0657 85.1357 21.2991 72.025C20.5325 58.9143 27.6237 51.6939 31.8401 45.8036C36.0565 39.9133 42.7643 35.5431 56.9467 38.3932C71.1291 41.2434 79.5619 53.024 81.2868 60.2444Z" fill="white"/>
<path id="Vector_8" fill-rule="evenodd" clip-rule="evenodd" d="M47.6769 68.5122C47.0385 69.1451 48.2951 70.2411 50.4029 70.89C52.459 71.5231 53.4972 71.3507 53.4972 70.3764C53.4972 69.8208 52.8753 69.4406 51.7326 69.2975C50.9679 69.2017 49.524 68.7915 48.2993 68.3222C48.1257 68.2555 47.8511 68.3395 47.6769 68.5122ZM25.6263 71.2175C25.1326 71.7201 24.9427 72.0699 24.9814 72.4051C25.0688 73.1574 25.7419 73.1148 26.6522 72.2995C27.451 71.5841 27.6084 71.1357 27.2023 70.733C26.8061 70.3403 26.3504 70.4803 25.6263 71.2175ZM48.4958 72.4587C47.9963 72.8364 47.5559 73.8551 47.5559 74.632C47.5559 75.5177 48.2244 77.9764 48.6689 78.725C49.4104 79.9743 51.1038 80.3922 52.0186 79.5516C53.4936 78.1964 52.9027 75.0254 50.8142 73.0888C49.8332 72.1788 49.1212 71.9854 48.4958 72.4587ZM26.4086 74.5055C25.7936 74.9851 25.4416 76.1924 25.6037 77.265C25.7605 78.3013 26.7038 79.7064 27.4482 80.012C27.9595 80.2221 28.0942 80.2054 28.5381 79.8769C29.7545 78.9764 29.5383 76.0556 28.1431 74.5427C27.6525 74.0109 27.0591 73.9982 26.4086 74.5055ZM39.6023 85.8122C38.5482 86.0626 37.4188 86.2694 37.0926 86.2716C36.4979 86.2758 35.865 86.7604 35.865 87.2114C35.865 87.7446 36.5577 88.559 37.3956 89.0112C39.5425 90.1697 41.602 89.6827 42.5783 87.7855C43.0867 86.7972 43.0691 85.9958 42.5302 85.6216C41.9995 85.253 41.9395 85.2568 39.6023 85.8122Z" fill="black"/>
<path id="Vector_9" fill-rule="evenodd" clip-rule="evenodd" d="M45.8278 36.0179C36.5772 37.4733 30.7718 43.9814 25.6738 51.4207C22.0573 56.698 21.2535 58.6853 20.4917 64.2345C20.1055 67.0478 20.061 68.1598 20.0576 75.0651C20.0546 81.1436 20.6497 86.9848 21.2064 93.021C21.6934 98.3013 22.6179 103.477 23.5054 108.697C23.9411 111.263 24.2899 113.95 25.8183 116.112C28.0465 119.264 31.198 121.048 34.5418 121.048C36.6633 121.048 38.9424 119.76 40.2809 117.806C43.305 113.391 49.006 120.509 52.0138 122.095C55.077 123.711 59.5928 124.846 62.2393 121.752C63.7171 120.024 64.5272 114.017 67.4833 114.017C70.1359 114.017 72.1869 117.618 74.2918 118.941C76.7082 120.46 79.8312 120.71 81.8924 119.551C83.2277 118.8 84.1179 117.567 84.8594 115.442C85.3802 113.95 85.3911 113.827 85.4516 108.792C85.5172 103.342 85.236 92.1812 84.9058 87.1307C84.4712 80.4776 84.4935 73.8254 83.8762 67.1797C83.287 60.8353 81.1612 55.9432 78.0868 50.5571C72.3796 40.5581 56.7412 34.301 45.8278 36.0179ZM75.0487 51.5039C79.112 56.4684 80.6951 62.731 81.0955 68.9912C81.5025 75.3446 82.0554 81.5737 82.0452 87.9569C82.0315 96.3512 83.6805 105.552 82.2796 113.827C81.9209 115.946 81.1107 117.734 78.7957 117.709C73.76 117.655 71.0709 109.461 65.7862 112.105C63.6014 113.199 62.8779 114.095 61.7099 117.152C59.2016 123.719 52.4995 119.767 48.6102 116.512C46.0497 114.369 44.7089 113.743 42.6689 113.737C38.636 113.724 38.4379 118.488 34.5236 118.451C32.7269 118.434 31.3815 117.947 29.8641 116.763C27.8497 115.19 27.1603 113.606 26.1064 108.127C25.0944 102.864 24.1846 97.7057 23.6931 92.356C22.8142 82.7853 21.9059 73.2878 23.4219 63.6945C24.345 57.8584 27.9355 52.1647 32.099 48.0288C36.8349 43.3251 39.7726 40.5326 46.502 39.4516C57.0764 37.7526 68.4755 43.4716 75.0487 51.5039ZM64.23 131.489C57.9439 131.942 51.2393 132.48 49.7601 132.65C45.6357 133.125 39.8298 133.586 37.9734 133.586C33.8925 133.587 26.9587 133.979 25.7756 134.275C23.8217 134.764 22.9257 135.952 23.4937 137.3C23.7341 137.87 24.0085 138.078 25.2698 138.649C27.8748 139.827 30.9048 140.146 41.9981 140.412C51.6876 140.645 58.9825 140.417 64.7091 139.703C67.239 139.388 70.2575 139.074 71.417 139.006C78.0277 138.617 81.8374 137.612 82.8317 135.996C83.4937 134.92 83.1876 133.371 82.2138 132.869C81.2387 132.367 79.4406 131.874 77.9587 131.704C75.9075 131.469 66.5475 131.323 64.23 131.489Z" fill="#323239"/>
</g>
</g>
</g>
</g>
</g>
</g>
</g>
</g>
</g>
</g>
<defs>
<clipPath id="clip0_954_2340">
<rect width="140" height="140" fill="white" transform="translate(0 0.5)"/>
</clipPath>
</defs>
</svg>
