<svg width="140" height="140" viewBox="0 0 140 140" fill="none" xmlns="http://www.w3.org/2000/svg">
<g id="no-video 1" clip-path="url(#clip0_954_2507)">
<g id="Clip path group">
<mask id="mask0_954_2507" style="mask-type:luminance" maskUnits="userSpaceOnUse" x="0" y="0" width="140" height="140">
<g id="clip0_1525_222719">
<path id="Vector" d="M140 0H0V140H140V0Z" fill="white"/>
</g>
</mask>
<g mask="url(#mask0_954_2507)">
<g id="Group">
<g id="Clip path group_2">
<mask id="mask1_954_2507" style="mask-type:luminance" maskUnits="userSpaceOnUse" x="8" y="11" width="133" height="133">
<g id="clip1_1525_222719">
<path id="Vector_2" d="M140.222 11H8V143.222H140.222V11Z" fill="white"/>
</g>
</mask>
<g mask="url(#mask1_954_2507)">
<g id="Group_2">
<path id="Vector_3" fill-rule="evenodd" clip-rule="evenodd" d="M114.601 24.0378C111.422 24.1659 107.158 24.4087 104.922 24.5891C103.008 24.7435 102.62 24.7743 99.1848 25.045C97.336 25.1906 95.5625 25.336 95.2437 25.3679C94.925 25.3998 93.3732 25.5438 91.7953 25.6878C90.2174 25.8317 88.5091 26.0005 87.9991 26.0628C87.4891 26.1252 86.0155 26.2813 84.7245 26.4098C83.4336 26.5383 81.9339 26.6955 81.392 26.7591C80.8501 26.8227 79.3635 26.9795 78.0885 27.1074C76.8134 27.2353 75.4312 27.3795 75.0168 27.4278C74.6024 27.4761 73.1549 27.6315 71.8002 27.7732C70.4454 27.9148 69.011 28.0703 68.6125 28.1185C68.2141 28.1667 66.8449 28.323 65.5698 28.4658C64.2948 28.6086 62.9386 28.7669 62.5561 28.8178C62.1735 28.8686 60.9347 29.0249 59.8031 29.1651C58.6715 29.3054 57.1849 29.4985 56.4996 29.5944C55.8142 29.6902 54.7319 29.8353 54.0944 29.9168C53.4568 29.9984 52.7918 30.0901 52.6165 30.1207C52.4411 30.1513 52.1151 30.2027 51.892 30.235C48.1353 30.7786 46.8492 30.975 44.2996 31.3942C41.2978 31.8878 36.6528 32.7161 35.6641 32.9342C35.4409 32.9834 34.6976 33.1381 34.0123 33.278C28.9433 34.3126 22.6818 36.1359 20.9256 37.0886C19.8087 37.6945 19.2583 38.3135 19.0244 39.2268C18.6985 40.4989 19.5532 41.7195 20.9757 42.0133C21.165 42.0524 21.3193 42.1118 21.3187 42.1452C21.3181 42.1787 21.2329 42.4408 21.1294 42.7278L20.9412 43.2495L20.5654 43.3748C20.0551 43.545 19.9845 43.5401 19.7219 43.3158C19.2654 42.9261 17.0977 41.3221 16.3355 40.81C14.7254 39.7284 13.4762 39.0818 12.5224 38.8363C11.8108 38.6531 10.9149 38.6646 10.2993 38.8648C9.58271 39.0977 8.91377 39.6418 8.49764 40.33C7.63681 41.754 7.8975 43.662 9.24314 45.7864C10.0029 46.9858 10.4408 47.5133 11.0639 47.9795C11.3548 48.1972 11.4326 48.262 12.974 49.5742C14.01 50.4562 14.8565 51.2011 15.5268 51.821C17.8555 53.9741 18.2298 54.3339 20.7692 56.8584C22.4943 58.5734 24.7063 60.8508 25.5273 61.7569C25.6666 61.9107 26.1341 62.7382 26.7553 63.9306C27.9733 66.2688 28.8887 68.0031 29.6377 69.3919C29.9473 69.9658 30.3895 70.7875 30.6204 71.2179C31.359 72.5941 32.4992 74.6902 32.583 74.8256C32.6276 74.8977 32.7878 75.1914 32.939 75.4783C33.0902 75.7653 33.28 76.1174 33.3608 76.2609C33.955 77.3162 34.4027 78.1195 35.2023 79.5649C35.3698 79.8678 35.702 80.4677 35.9405 80.8981C36.179 81.3285 36.5642 82.0328 36.7966 82.4632C37.0289 82.8936 37.3404 83.4674 37.4887 83.7384C37.6371 84.0094 38.2962 85.2132 38.9535 86.4136C39.6108 87.6139 40.2412 88.7747 40.3543 88.9931C40.4676 89.2114 40.621 89.4944 40.6952 89.6219C40.7694 89.7494 40.9617 90.1016 41.1225 90.4045C41.591 91.287 42.5289 93.0315 42.6028 93.1578C42.6402 93.2216 43.2742 94.4215 44.0118 95.8242C44.7493 97.227 45.7744 99.1748 46.2897 100.153C46.8049 101.131 47.2265 101.943 47.2265 101.957C47.2265 101.997 49.7109 106.75 50.0653 107.388C51.1299 109.306 52.0495 110.655 52.7913 111.388C53.5957 112.183 54.3355 112.543 55.171 112.546C55.6874 112.548 55.6008 112.475 56.3827 113.561C56.9315 114.324 57.438 115.017 57.7173 115.387C57.8014 115.499 58.7829 116.803 59.8983 118.286C61.0137 119.768 62.1593 121.284 62.444 121.654C62.7288 122.024 63.0446 122.441 63.1458 122.581C63.2471 122.721 63.7367 123.384 64.2341 124.053C65.3118 125.504 66.3809 126.956 66.6667 127.357C66.7802 127.517 67.0033 127.83 67.1622 128.053C67.3211 128.276 67.6094 128.68 67.8029 128.951C67.9965 129.222 68.3092 129.666 68.498 129.937C69.9227 131.982 70.6509 132.817 71.5078 133.386C72.1207 133.793 72.6121 133.999 73.394 134.176C75.0406 134.549 76.672 134.249 77.8936 133.349C78.3501 133.013 78.8339 132.473 79.0995 132.004C79.2729 131.697 79.3058 131.668 79.4433 131.7C80.7819 132.011 81.8588 131.943 82.6961 131.495C83.3921 131.122 83.866 130.657 84.2291 129.99C84.6962 129.131 84.736 127.647 84.3217 126.54C83.9329 125.501 83.2402 124.431 82.0443 123.023C81.8609 122.807 81.7108 122.606 81.7108 122.577C81.7108 122.548 81.8192 122.399 81.9517 122.246C82.4516 121.668 82.6719 120.966 82.6218 120.112C82.5865 119.508 82.4371 119.033 82.1438 118.591C81.7981 118.069 81.8581 118.071 82.6838 118.604C83.7364 119.285 84.1292 119.536 84.6311 119.851C84.9106 120.026 85.3013 120.274 85.4992 120.401C85.6971 120.529 86.1841 120.839 86.5813 121.09C87.2916 121.54 87.9657 121.977 88.8551 122.567C89.1027 122.731 89.3137 122.865 89.3239 122.865C89.3556 122.865 89.891 122.166 90.2872 121.608C90.9284 120.704 91.328 120.106 92.2945 118.602C92.4575 118.348 92.9109 117.645 93.302 117.039C93.6931 116.434 94.247 115.56 94.533 115.097C95.3709 113.743 95.5085 113.547 97.1533 111.371C98.0156 110.23 98.8124 109.17 98.924 109.016C99.1501 108.703 101.528 105.548 102.745 103.948C103.76 102.612 103.852 102.481 104.238 101.824C104.416 101.521 104.64 101.143 104.737 100.983C104.833 100.824 105.015 100.511 105.142 100.288C105.269 100.064 105.456 99.7514 105.558 99.592C105.66 99.4326 105.992 98.8848 106.296 98.3747C106.6 97.8646 107.182 96.8995 107.59 96.23C107.998 95.5605 108.473 94.778 108.645 94.491C108.816 94.2041 109.121 93.7085 109.321 93.3897C109.521 93.0709 109.815 92.6014 109.975 92.3463C110.135 92.0913 110.587 91.3739 110.98 90.7523C111.748 89.539 112.232 88.7706 112.752 87.9409C112.931 87.654 113.212 87.2071 113.376 86.948C113.54 86.6887 113.815 86.2453 113.988 85.9626C114.161 85.6797 114.373 85.3441 114.46 85.2165C114.546 85.089 114.833 84.6456 115.096 84.2311C115.36 83.8167 115.685 83.308 115.819 83.1008C116.326 82.3134 117.108 81.0901 117.271 80.8274C117.364 80.6769 117.624 80.2686 117.847 79.9201C118.215 79.3442 118.42 79.02 119.363 77.5195C120.15 76.2675 120.36 75.9338 120.629 75.5101C120.788 75.2589 121.088 74.7855 121.295 74.4582C121.502 74.1309 121.802 73.6606 121.962 73.4132C122.121 73.1657 122.434 72.6733 122.657 72.319C122.88 71.9646 123.219 71.4284 123.411 71.1276C124.148 69.9682 124.309 69.7113 124.862 68.8123C125.176 68.3022 125.626 67.5718 125.864 67.1892C126.101 66.8067 126.423 66.285 126.579 66.0299C126.735 65.7749 127.025 65.3098 127.223 64.9963C127.421 64.6829 127.675 64.2761 127.786 64.0923C127.898 63.9086 128.211 63.4016 128.482 62.9657C130.199 60.203 130.281 60.0539 130.373 59.5236C130.592 58.2642 130.588 56.4989 130.363 55.5432C130.131 54.553 129.625 53.6615 128.961 53.0735C128.567 52.7245 128.29 52.5603 127.759 52.3609C127.36 52.2109 127.211 52.1854 126.714 52.1819C126.291 52.1789 126.049 52.207 125.816 52.2864C125.38 52.4349 124.964 52.6489 124.702 52.8598C124.582 52.9567 124.467 53.0204 124.448 53.0012C124.429 52.9821 124.667 52.2278 124.976 51.3251C125.286 50.4223 125.641 49.3714 125.766 48.9897C125.89 48.6081 126.015 48.2728 126.043 48.2447C126.073 48.2151 126.25 48.2299 126.462 48.2797C127.308 48.4777 128.889 48.904 129.293 49.0427C131.493 49.7981 131.845 49.8875 132.774 49.9268L133.561 49.96L133.715 49.532C133.799 49.2966 133.974 48.7779 134.102 48.3794C134.429 47.3665 134.957 45.8173 135.407 44.5537C135.616 43.9639 135.93 43.077 136.102 42.5829C136.619 41.1069 137.084 39.8306 137.485 38.7861C137.694 38.2441 138.01 37.4225 138.188 36.9602C138.366 36.4979 138.629 35.7936 138.774 35.3951C138.918 34.9966 139.113 34.488 139.206 34.2648C139.299 34.0416 139.49 33.5591 139.63 33.1924C139.77 32.8258 139.969 32.3093 140.072 32.0446C140.254 31.5774 140.256 31.5599 140.154 31.447C139.96 31.2318 139.121 30.7714 138.624 30.6071C138.163 30.4547 138.07 30.4442 137.175 30.4451C136.402 30.4459 136.164 30.4661 135.929 30.5505C135.714 30.628 135.363 30.6665 134.567 30.7001C133.882 30.729 133.296 30.7872 132.944 30.8612C132.296 30.9976 131.219 31.1383 131.173 31.0925C131.156 31.075 131.182 30.712 131.231 30.2861C131.36 29.1788 131.35 28.1023 131.203 27.382C130.892 25.8557 129.897 24.6874 128.569 24.2872C128.014 24.1204 127.021 24.1467 126.417 24.3442C125.845 24.5312 125.178 24.9553 124.636 25.4763C124.233 25.8645 123.566 26.8002 123.258 27.4104C123.166 27.5937 123.069 27.7437 123.042 27.7437C123.016 27.7437 122.961 27.5574 122.92 27.3297C122.701 26.103 121.613 24.7961 120.426 24.3342C119.645 24.0303 119.519 24.0154 117.615 24.0017C116.627 23.9945 115.271 24.0108 114.601 24.0378Z" fill="#9146FF"/>
</g>
</g>
</g>
<g id="Clip path group_3">
<mask id="mask2_954_2507" style="mask-type:luminance" maskUnits="userSpaceOnUse" x="0" y="29" width="108" height="108">
<g id="clip2_1525_222719">
<path id="Vector_4" d="M108 29H0V137H108V29Z" fill="white"/>
</g>
</mask>
<g mask="url(#mask2_954_2507)">
<g id="Group_3">
<path id="Vector_5" d="M86.7935 40.8073C88.675 40.7705 90.5455 40.5337 92.4283 40.5334C93.4484 45.0711 93.9453 49.6695 94.8224 54.2269C95.7741 59.1715 96.532 64.1508 97.3281 69.1221C98.2926 75.1442 99.3121 81.1555 100.299 87.1732C101.047 91.7382 102.195 96.4534 103.513 100.898C104.217 103.271 104.677 105.767 104.964 108.223C105.038 108.847 105.602 109.294 106.225 109.221C106.848 109.148 107.294 108.582 107.221 107.958C106.92 105.394 106.432 102.752 105.698 100.276C104.404 95.9125 103.275 91.2868 102.54 86.8043C101.554 80.7882 100.535 74.7786 99.5706 68.7582C98.7708 63.7645 98.009 58.7628 97.053 53.7959C96.1959 49.3425 95.9382 44.7856 94.79 40.3864C94.4906 39.2391 93.7118 38.2573 92.433 38.2573C90.5334 38.2573 88.6471 38.4945 86.7492 38.5316C86.122 38.5439 85.6235 39.0632 85.6357 39.6916C85.648 40.32 86.1663 40.8195 86.7935 40.8073Z" fill="#F5F500"/>
<path id="Vector_6" d="M66.4544 42.1749C60.0308 42.6446 53.6472 43.4304 47.2311 43.9717C42.9112 44.3362 38.338 44.265 34.0976 45.0547C26.6602 46.4399 19.437 48.2124 11.895 49.2519C11.2736 49.3376 10.7005 48.9023 10.615 48.2796C10.5295 47.6569 10.964 47.0827 11.5854 46.9971C19.0935 45.9622 26.2786 44.1916 33.683 42.8166C37.9944 42.016 42.6476 42.0743 47.0404 41.7037C53.4651 41.1668 59.8573 40.3752 66.2891 39.9048C71.1705 39.5478 76.3802 38.0894 81.2602 38.3504C81.8317 38.381 82.259 38.8046 82.4173 39.331C82.4858 39.5589 82.5147 39.8105 82.5304 40.0169C82.6422 41.491 82.5429 43.2717 82.5214 44.9383C82.4207 45.5421 81.9139 46.0146 81.2895 46.0146C80.6622 46.0146 80.1537 45.5051 80.1537 44.8765C80.1537 43.4684 80.2928 42.0626 80.2819 40.657C77.1429 40.5717 71.0901 41.8359 66.4544 42.1749Z" fill="#F5F500"/>
<path id="Vector_7" fill-rule="evenodd" clip-rule="evenodd" d="M5.56421 51.1879C4.12475 51.3157 2.75118 51.8275 1.33249 52.0771C0.714626 52.1858 0.125799 51.7721 0.0173054 51.153C-0.0911881 50.534 0.321737 49.944 0.9396 49.8353C2.50924 49.5591 4.24201 49.0577 5.79152 48.8428C6.60362 48.689 7.54803 48.7998 7.64921 49.7851C7.8169 51.3844 8.68909 52.7768 8.92201 54.347C9.01514 54.9748 9.11666 55.6795 8.48571 56.0002C7.63345 56.4334 6.78485 55.5009 6.67998 54.717C6.51694 53.4982 5.87236 52.3726 5.56421 51.1879Z" fill="#F5F500"/>
<path id="Vector_8" fill-rule="evenodd" clip-rule="evenodd" d="M0 52.8L4.24286 52.4142L5.93325 57.0148L12.5028 56.2972L11.5643 49.6L76.7571 42L78.6857 47.4L85.9414 46.4906V42H89.8714L95.2714 77.1L102.6 109.397L98.6113 110.593L95.6571 104.872L87.8184 106.415L88.2877 113.702L25.8428 123.772L22.7571 117.215L14.6571 119.143L15.7876 126.086H13.676C11.7989 118.512 7.43487 101.408 5.93325 90.5008C4.43163 79.594 1.09494 61.1715 0 52.8ZM77.7294 54.8621L79.3718 64.6688L88.9916 62.7553L87.8184 52.9486L77.7294 54.8621ZM82.1873 87.8698L84.8571 97.198L93.7286 95.6142L92.5714 86.3571L82.1873 87.8698ZM82.1873 81.4118L80.6143 71.7L89.8714 71.1268L91.8 79.4142L82.1873 81.4118Z" fill="white"/>
<path id="Vector_9" fill-rule="evenodd" clip-rule="evenodd" d="M86.1352 42.4287C85.5702 42.9578 86.1351 43.7458 86.5704 46.4835C86.3652 47.5697 78.4688 49.3046 78.6514 46.336C78.8334 43.3798 77.2942 42.1584 75.1907 42.4288C73.7924 42.4288 73.311 43.0174 73.0937 45.7488L72.9615 47.4088C62.7203 48.5829 52.6712 50.449 42.459 51.6848C34.9641 52.5919 27.2715 53.4661 19.8894 55.1057C17.6779 55.597 17.7049 55.6155 17.7049 53.6081C17.7049 51.9376 17.2558 51.3218 16.0381 51.3218C15.5495 51.3218 12.7004 51.6848 11.6924 52.2315L12.3686 55.1842C12.5737 56.2537 12.7229 57.1475 12.7004 57.1703C12.4704 57.4027 6.68613 58.7276 6.39471 58.6145C6.14295 58.517 5.95125 58.0619 5.85083 57.3235C5.43881 54.2975 4.80904 53.2704 3.23346 53.057C2.39746 52.9436 2.16634 53.0133 1.65014 53.5351C0.967823 54.2247 0.787173 55.169 1.27803 56.0887C2.15877 67.7201 4.82092 79.1538 6.20865 90.7339C7.19713 98.975 8.98893 107.582 11.2707 115.554C11.997 118.092 12.108 120.649 12.9266 123.226C13.8161 126.027 13.7726 127.446 15.1101 127.446C15.5301 127.446 16.3949 127.322 16.6896 127.081C16.6896 125.331 15.3585 122.293 15.3585 120.517C15.3585 118.952 18.8844 118.942 20.1254 118.77C21.2037 118.621 23.6993 117.792 24.0352 118.96C24.2384 119.666 25.4922 122.569 25.5781 123.178C25.9081 125.52 27.1024 124.371 29.2694 124.36C30.0514 124.36 30.0514 123.178 30.0514 123.178C30.0192 122.787 29.0606 119.195 29.2694 119.004C29.432 118.854 34.4607 117.944 36.945 117.615C44.5047 116.614 51.9425 114.906 59.4971 113.934C66.1964 113.07 72.9404 112.12 79.6107 111.038C82.014 110.648 82.7811 110.596 82.9156 110.817C83.0119 110.974 83.2198 111.811 83.3775 112.676C83.9604 115.875 86.1352 115.103 87.861 114.332C89.0484 113.801 89.6076 113.318 88.9751 110.89C88.5084 109.099 88.1295 108.351 88.4495 107.775C89.9258 105.881 94.2352 105.46 96.9352 106.232C98.8439 109.11 99.3568 111.638 101.178 110.089C102.687 108.805 103.106 109.318 102.335 105.881C101.635 102.76 99.0157 95.5068 98.6601 92.271C97.9267 85.592 95.5237 79.1004 94.9851 72.4216C94.1691 62.3043 91.7674 52.2377 90.4325 42.1584C90.4325 42.1584 86.9548 41.6611 86.1352 42.4287ZM87.1186 57.3097C87.5215 59.7061 87.6657 62.6522 87.3885 62.8255C87.0377 63.0444 83.0019 63.6441 81.8442 63.6491C81.279 63.6515 80.8254 63.5294 80.7607 63.3569C80.6301 63.0105 80.1722 60.3087 79.9263 58.4362L79.7552 57.1319L82.8109 56.5084C87.1557 55.6219 86.8244 55.5603 87.1186 57.3097ZM74.8059 58.8512C74.8699 59.0795 74.993 59.8531 75.0798 60.5705C75.7145 65.815 76.937 70.9303 77.2942 76.2221C77.7883 83.5517 79.3298 90.7612 79.7661 98.1001C76.0132 98.8704 72.215 99.532 68.5036 100.484C57.795 103.226 46.1385 104.765 35.0978 105.881C34.2665 105.965 27.5859 107.631 26.9538 106.993C26.8731 106.911 26.1652 102.942 24.8676 95.2928C23.3695 86.4628 22.1674 77.398 19.804 68.7686C19.5564 67.8646 19.4013 67.0768 19.4595 67.018C19.5177 66.9592 19.9124 66.8814 20.3363 66.8454C28.4859 66.148 36.6986 64.1141 44.8053 62.9346C53.9581 61.6029 64.4613 61.8593 73.0789 58.7015C74.0444 58.3477 74.6806 58.403 74.8059 58.8512ZM13.5875 68.0204C14.6129 68.4535 14.7982 68.8384 15.1176 71.1954C15.5155 74.1327 15.0707 74.7556 12.1907 75.2937C9.77045 75.746 8.93887 75.2344 8.41164 72.9697C8.01065 71.248 7.99727 69.7796 8.37809 69.3143C9.49894 67.945 11.9606 67.3334 13.5875 68.0204ZM89.8247 73.3171C90.0082 73.6757 90.2814 74.794 90.4325 75.8019C90.857 78.6356 90.4976 79.1108 87.3532 79.8742C85.4782 80.3293 84.017 80.3622 83.6915 79.9572C83.5608 79.7943 83.226 78.4506 82.948 76.9715C82.3736 73.9183 82.4533 73.6183 83.8421 73.6062C84.3104 73.6021 85.538 73.3982 86.5704 73.1535C89.1749 72.5355 89.4319 72.5483 89.8247 73.3171ZM42.0068 75.883C41.8041 76.0877 41.5749 76.511 41.4974 76.8233C41.2546 77.8015 42.5266 87.8762 43.1268 89.7276C43.2897 90.2306 43.6432 90.6822 44.0146 90.8619C45.1348 91.4045 55.5 89 55.5 89C55.5 89 59 88.5 59 87.5C59 86.5 58 80 58 80C58 80 57.5 74 56.2354 73.6062C54.1596 72.8827 43.5732 75.5107 42.8913 75.5107C42.6074 75.5107 42.2093 75.6781 42.0068 75.883ZM16.4637 83.0083C17.5918 83.7193 18.2012 88.5006 17.2722 89.3503C16.723 89.8526 14.4744 90.4509 13.1361 90.4509C11.1905 90.4509 10.1916 88.9024 10.2001 85.8994C10.2043 84.4198 10.232 84.3719 11.6044 83.4622C13.1713 82.424 15.2309 82.2314 16.4637 83.0083ZM91.9387 88.9963C92.3969 89.5083 93.1386 93.747 92.9222 94.6183C92.75 95.3122 91.868 95.7946 89.9258 96.2575C86.8471 96.991 85.6875 96.6158 85.397 94.7921C85.3179 94.2958 85.0875 93.1613 84.885 92.271C84.4653 90.4258 84.6657 89.5842 85.5653 89.4141C85.86 89.3584 86.8931 89.1537 87.861 88.9593C90.3836 88.4527 91.4608 88.4627 91.9387 88.9963ZM20.0475 101.083C20.7298 101.772 21.6937 104.49 21.6937 105.725C21.6937 106.648 20.7404 107.413 18.9963 107.89C17.2903 108.357 15.794 108.257 15.1101 107.632C14.5308 107.102 13.4242 103.452 13.6129 102.692C13.8315 101.812 14.6528 101.176 16.0683 100.792C18.1768 100.219 19.2723 100.299 20.0475 101.083Z" fill="black"/>
<path id="Vector_10" fill-rule="evenodd" clip-rule="evenodd" d="M87.0695 40.6077C85.0667 40.7083 84.9876 40.8387 85.2661 43.5709C85.3831 44.7182 85.4469 45.6886 85.4078 45.7276C85.3174 45.8175 81.3014 46.2775 80.5852 46.2801C79.9536 46.2822 79.9767 46.3418 79.4707 43.4118C79.0119 40.7537 78.5439 40.65 75.9214 41.0071C70.2622 41.777 64.4583 42.3498 58.7564 42.7649C43.894 43.8461 29.4481 46.5154 14.7326 48.634C10.8755 49.1895 10.3912 49.686 10.8133 52.6521C10.965 53.7172 11.1488 54.8109 11.222 55.0827C11.3786 55.6644 11.1799 55.7625 8.86233 56.2473C7.96558 56.435 7.15829 56.507 7.06859 56.4074C6.97889 56.3079 6.66977 55.2599 6.3816 54.0782C5.70851 51.3193 5.4493 51.0738 3.22754 51.0939C1.28995 51.1112 0.21309 51.5313 0.0209789 52.3444C-0.0524754 52.6544 0.0732445 53.8127 0.299964 54.9183C0.526919 56.0239 0.872766 58.4026 1.06888 60.2043C1.79607 66.8931 2.36915 73.7736 3.6499 80.3742C5.72423 91.0645 6.34053 102.298 9.64286 112.7C10.4883 115.362 10.8105 117.196 11.5714 120.34C11.83 121.408 12.5948 127.743 13.7866 127.743C14.5651 127.743 15.9424 127.743 15.9424 127.743C18.8248 127.656 19.0613 127.977 18.0072 125.216C17.5233 123.949 17.0796 122.318 17.0209 121.591C16.9246 120.396 16.9682 120.234 17.4706 119.918C18.1696 119.477 20.1912 119.053 21.588 119.053C23.1593 119.053 23.8103 119.81 24.7164 122.69C25.0064 123.612 24.9654 125.606 26.2081 125.6C30.3722 125.578 34.8083 123.899 38.9783 123.374C48.3268 122.198 57.8726 120.685 67.1142 118.82C72.6003 117.713 78.2142 117.462 83.712 116.462C85.4907 116.138 91.3882 114.66 91.5525 114.497C91.6201 114.43 91.3404 113.242 90.9308 111.857C89.5615 107.227 89.9733 106.417 93.6968 106.417C95.3338 106.417 95.6462 106.485 96.0629 106.929C96.3268 107.211 96.5425 107.711 96.5418 108.041C96.5408 108.542 97.6179 111.92 97.8851 112.254C97.9308 112.311 99.4602 111.997 101.284 111.557C105.092 110.638 105.236 110.512 104.667 108.592C103.772 105.569 103.296 102.245 102.548 99.1635C98.0313 80.5752 95.2714 65.6427 92.1821 42.5718C91.9695 41.235 91.3795 40.6662 90.2056 40.6662C89.1519 40.6662 88.1291 40.5543 87.0695 40.6077ZM89.5342 42.8306C89.8176 43.0492 90.039 44.1569 90.41 47.2179C92.4647 64.1767 94.5176 81.4746 98.9104 97.9935C101.717 108.548 101.713 108.511 100.288 108.52C99.7483 108.523 99.601 108.328 99.011 106.834C98.1625 104.684 97.5715 104.077 96.328 104.077C94.6339 104.077 87.5175 105.692 87.1714 106.143C86.7857 106.929 87.1305 108.165 87.1714 109.614C87.259 112.713 86.3148 112.911 83.4636 113.202C70.0474 114.569 56.6512 117.459 43.3357 119.591C36.1951 120.736 34.6514 121.004 31.4239 121.657C29.4691 122.053 27.6902 122.339 27.4705 122.294C27.2231 122.243 26.78 121.499 26.3058 120.34C25.6011 118.616 25.5083 116.513 23.5541 116.149C21.135 115.699 14.9957 117.517 13.9377 119.607L13.7866 118.92C13.7035 118.543 13.1672 116.549 12.5948 114.49C10.713 107.719 9.50223 102.172 8.50824 95.7667C7.96934 92.294 7.2647 88.1368 6.94216 86.5281C6.15017 82.5762 4.47367 71.6627 2.59258 58.2154C2.33149 56.3493 2.06757 54.6564 2.00589 54.4531C1.84261 53.9153 4.00155 53.4104 4.27214 53.7277C4.34701 53.815 4.54289 54.729 4.70769 55.7585C5.0286 57.7633 5.19067 59.4 7.56652 59.0613C9.44524 58.7934 11.2822 58.5018 13.1349 58.0916C14.1282 57.8719 14.2365 57.2013 13.6717 54.7713C13.3765 53.5019 13.2437 52.4632 13.3614 52.3462C13.4749 52.2335 14.4121 52.0285 15.444 51.8907C27.9803 50.2167 40.214 47.7496 52.8706 46.6215C60.7259 45.9212 69.4286 44.8141 77.1256 43.4741C77.5562 43.4741 78.0487 47.69 78.8181 48.3616C79.4319 48.8972 79.5616 48.9148 81.9385 48.7824C84.4496 48.6424 86.9409 48.1298 87.5497 47.6274C87.8772 47.3574 87.8313 45.5135 87.4424 43.2986C87.3103 42.5475 87.32 42.5381 88.2318 42.5381C88.7394 42.5381 89.3254 42.6699 89.5342 42.8306Z" fill="#323239"/>
</g>
</g>
</g>
</g>
</g>
</g>
</g>
<defs>
<clipPath id="clip0_954_2507">
<rect width="140" height="140" fill="white"/>
</clipPath>
</defs>
</svg>
