<svg width="27" height="27" viewBox="0 0 27 27" fill="none" xmlns="http://www.w3.org/2000/svg">
<path d="M4.5 1H22C23.939 1 25.5 2.561 25.5 4.5V22C25.5 23.939 23.939 25.5 22 25.5H4.5C2.561 25.5 1 23.939 1 22V4.5C1 2.561 2.561 1 4.5 1Z" stroke="#B0A2FC" stroke-width="1.5" stroke-linecap="round" stroke-linejoin="round"/>
<path d="M6.25 6.25H8" stroke="#B0A2FC" stroke-width="1.5" stroke-linecap="round" stroke-linejoin="round"/>
<path d="M9.75 8C9.28587 8 8.84075 7.81563 8.51256 7.48744C8.18437 7.15925 8 6.71413 8 6.25C8 5.78587 8.18437 5.34075 8.51256 5.01256C8.84075 4.68437 9.28587 4.5 9.75 4.5C9.97981 4.5 10.2074 4.54526 10.4197 4.63321C10.632 4.72116 10.8249 4.85006 10.9874 5.01256C11.1499 5.17507 11.2788 5.36798 11.3668 5.5803C11.4547 5.79262 11.5 6.02019 11.5 6.25C11.5 6.47981 11.4547 6.70738 11.3668 6.9197C11.2788 7.13202 11.1499 7.32493 10.9874 7.48744C10.8249 7.64994 10.632 7.77884 10.4197 7.86679C10.2074 7.95473 9.97981 8 9.75 8Z" stroke="#B0A2FC" stroke-width="1.5" stroke-linecap="round" stroke-linejoin="round"/>
<path d="M11.5 6.25003L20.25 6.25" stroke="#B0A2FC" stroke-width="1.5" stroke-linecap="round" stroke-linejoin="round"/>
<path d="M20.25 13.25H18.5" stroke="#B0A2FC" stroke-width="1.5" stroke-linecap="round" stroke-linejoin="round"/>
<path d="M16.75 15C17.2141 15 17.6592 14.8156 17.9874 14.4874C18.3156 14.1592 18.5 13.7141 18.5 13.25C18.5 12.7859 18.3156 12.3408 17.9874 12.0126C17.6592 11.6844 17.2141 11.5 16.75 11.5C16.2859 11.5 15.8408 11.6844 15.5126 12.0126C15.1844 12.3408 15 12.7859 15 13.25C15 13.7141 15.1844 14.1592 15.5126 14.4874C15.8408 14.8156 16.2859 15 16.75 15Z" stroke="#B0A2FC" stroke-width="1.5" stroke-linecap="round" stroke-linejoin="round"/>
<path d="M15 13.25L6.25 13.25" stroke="#B0A2FC" stroke-width="1.5" stroke-linecap="round" stroke-linejoin="round"/>
<path d="M6.25 20.25H8" stroke="#B0A2FC" stroke-width="1.5" stroke-linecap="round" stroke-linejoin="round"/>
<path d="M9.75 22C9.28587 22 8.84075 21.8156 8.51256 21.4874C8.18437 21.1592 8 20.7141 8 20.25C8 19.7859 8.18437 19.3408 8.51256 19.0126C8.84075 18.6844 9.28587 18.5 9.75 18.5C9.97981 18.5 10.2074 18.5453 10.4197 18.6332C10.632 18.7212 10.8249 18.8501 10.9874 19.0126C11.1499 19.1751 11.2788 19.368 11.3668 19.5803C11.4547 19.7926 11.5 20.0202 11.5 20.25C11.5 20.4798 11.4547 20.7074 11.3668 20.9197C11.2788 21.132 11.1499 21.3249 10.9874 21.4874C10.8249 21.6499 10.632 21.7788 10.4197 21.8668C10.2074 21.9547 9.97981 22 9.75 22Z" stroke="#B0A2FC" stroke-width="1.5" stroke-linecap="round" stroke-linejoin="round"/>
<path d="M11.5 20.25L20.25 20.25" stroke="#B0A2FC" stroke-width="1.5" stroke-linecap="round" stroke-linejoin="round"/>
</svg>
