<svg width="36" height="36" viewBox="0 0 36 36" fill="none" xmlns="http://www.w3.org/2000/svg">
<path d="M36 3.50591C36 0.689915 32.844 -0.974085 30.52 0.617915L9.526 15.0059C9.05873 15.3262 8.67618 15.7551 8.41123 16.2559C8.14627 16.7566 8.00682 17.3142 8.00485 17.8807C8.00289 18.4472 8.13846 19.0057 8.39993 19.5082C8.66141 20.0108 9.04096 20.4424 9.506 20.7659L30.504 35.3699C32.824 36.9839 36.002 35.3219 36.002 32.4959L36 3.50591ZM32.218 3.09392C32.293 3.04319 32.3805 3.0138 32.4709 3.00889C32.5614 3.00398 32.6514 3.02374 32.7315 3.06604C32.8116 3.10835 32.8787 3.17162 32.9257 3.24909C32.9726 3.32657 32.9976 3.41533 32.998 3.50591V32.4959C32.9977 32.587 32.9726 32.6762 32.9253 32.754C32.878 32.8319 32.8104 32.8953 32.7297 32.9375C32.649 32.9797 32.5583 32.999 32.4675 32.9935C32.3766 32.9879 32.2889 32.9576 32.214 32.9059L11.22 18.3039C11.1533 18.2578 11.0988 18.1962 11.0612 18.1243C11.0236 18.0524 11.0041 17.9725 11.0043 17.8914C11.0045 17.8103 11.0244 17.7305 11.0623 17.6588C11.1003 17.5871 11.1551 17.5257 11.222 17.4799L32.22 3.09392H32.218ZM0 1.49992C0 1.10209 0.158035 0.72056 0.43934 0.439255C0.720644 0.15795 1.10218 -8.4573e-05 1.5 -8.4573e-05C1.89782 -8.4573e-05 2.27936 0.15795 2.56066 0.439255C2.84196 0.72056 3 1.10209 3 1.49992V34.4999C3 34.8977 2.84196 35.2793 2.56066 35.5606C2.27936 35.8419 1.89782 35.9999 1.5 35.9999C1.10218 35.9999 0.720644 35.8419 0.43934 35.5606C0.158035 35.2793 0 34.8977 0 34.4999V1.49992Z" fill="#B0A2FC"/>
</svg>
