<svg width="28" height="28" viewBox="0 0 28 28" fill="none" xmlns="http://www.w3.org/2000/svg">
<path d="M2 26L7.25 20.75M18.5 2L13.25 7.25M26 9.5L20.75 14.75M10.6775 5L23 17.3225L19.919 20.4035C19.1158 21.2388 18.1541 21.9056 17.0901 22.3648C16.026 22.824 14.8812 23.0663 13.7224 23.0777C12.5636 23.0891 11.4141 22.8692 10.3413 22.431C9.26851 21.9928 8.29387 21.345 7.47444 20.5256C6.655 19.7061 6.00723 18.7315 5.56901 17.6587C5.13079 16.5859 4.91093 15.4364 4.92229 14.2776C4.93366 13.1188 5.17602 11.974 5.6352 10.9099C6.09438 9.84594 6.76115 8.8842 7.5965 8.081L10.6775 5Z" stroke="#B0A2FC" stroke-width="2" stroke-linecap="round" stroke-linejoin="round"/>
</svg>
