<svg width="28" height="28" viewBox="0 0 28 28" fill="none" xmlns="http://www.w3.org/2000/svg">
<g clip-path="url(#clip0_543_406)">
<path d="M20.4136 20.3653L20.1382 20.6407C19.3053 21.507 18.3079 22.1984 17.2045 22.6746C16.1011 23.1508 14.9138 23.4021 13.7121 23.4139C12.5103 23.4257 11.3183 23.1977 10.2058 22.7433C9.09327 22.2888 8.08254 21.617 7.23275 20.7673C6.38297 19.9175 5.7112 18.9067 5.25675 17.7942C4.8023 16.6817 4.57429 15.4897 4.58608 14.2879C4.59787 13.0862 4.84921 11.8989 5.32539 10.7955C5.80158 9.69209 6.49304 8.69473 7.35933 7.86178L7.60667 7.61444M1.55556 26.4444L7 21M18.6667 1.55556L13.2222 7M26.4444 9.33333L21 14.7778M1 1L27 27" stroke="#B0A2FC" stroke-width="2" stroke-linecap="round" stroke-linejoin="round"/>
</g>
<defs>
<clipPath id="clip0_543_406">
<rect width="28" height="28" fill="white"/>
</clipPath>
</defs>
</svg>
