<svg width="22" height="23" viewBox="0 0 22 23" fill="none" xmlns="http://www.w3.org/2000/svg">
<g clip-path="url(#clip0_483_1049)">
<path d="M15.3386 4.4727L17.7206 6.96185M16.8704 2.27985L10.4294 9.0136C10.0966 9.36105 9.86961 9.80371 9.77708 10.2858L9.18213 13.3993L12.1603 12.7761C12.6214 12.6797 13.0442 12.4434 13.3771 12.0953L19.8181 5.3616C20.0117 5.15925 20.1652 4.91902 20.27 4.65464C20.3747 4.39026 20.4286 4.10689 20.4286 3.82072C20.4286 3.53456 20.3747 3.25119 20.27 2.98681C20.1652 2.72243 20.0117 2.4822 19.8181 2.27985C19.6246 2.0775 19.3948 1.91699 19.1419 1.80748C18.889 1.69797 18.618 1.6416 18.3442 1.6416C18.0705 1.6416 17.7995 1.69797 17.5466 1.80748C17.2937 1.91699 17.0639 2.0775 16.8704 2.27985Z" stroke="#B0A2FC" stroke-width="3" stroke-linecap="round" stroke-linejoin="round"/>
<path d="M18.1796 15.7501V19.2775C18.1796 19.9011 17.9426 20.4993 17.5208 20.9403C17.099 21.3813 16.5268 21.629 15.9303 21.629H3.55891C2.96235 21.629 2.39022 21.3813 1.96839 20.9403C1.54655 20.4993 1.30957 19.9011 1.30957 19.2775V6.34377C1.30957 5.72009 1.54655 5.12196 1.96839 4.68095C2.39022 4.23994 2.96235 3.99219 3.55891 3.99219H6.93292" stroke="#B0A2FC" stroke-width="3" stroke-linecap="round" stroke-linejoin="round"/>
</g>
<defs>
<clipPath id="clip0_483_1049">
<rect width="22" height="23" fill="white"/>
</clipPath>
</defs>
</svg>
