<svg width="36" height="36" viewBox="0 0 36 36" fill="none" xmlns="http://www.w3.org/2000/svg">
<path d="M24.711 8.11223L27.888 11.2877M26.754 5.31473L18.1635 13.9052C17.7196 14.3485 17.4169 14.9132 17.2935 15.5282L16.5 19.5002L20.472 18.7052C21.087 18.5822 21.651 18.2807 22.095 17.8367L30.6855 9.24623C30.9436 8.98808 31.1484 8.68162 31.2881 8.34433C31.4278 8.00705 31.4997 7.64555 31.4997 7.28048C31.4997 6.9154 31.4278 6.55391 31.2881 6.21662C31.1484 5.87934 30.9436 5.57287 30.6855 5.31473C30.4274 5.05658 30.1209 4.85181 29.7836 4.7121C29.4463 4.57239 29.0848 4.50049 28.7197 4.50049C28.3547 4.50049 27.9932 4.57239 27.6559 4.7121C27.3186 4.85181 27.0121 5.05658 26.754 5.31473Z" stroke="#B0A2FC" stroke-opacity="0.75" stroke-width="2" stroke-linecap="round" stroke-linejoin="round"/>
<path d="M28.5 22.5V27C28.5 27.7956 28.1839 28.5587 27.6213 29.1213C27.0587 29.6839 26.2956 30 25.5 30H9C8.20435 30 7.44129 29.6839 6.87868 29.1213C6.31607 28.5587 6 27.7956 6 27V10.5C6 9.70435 6.31607 8.94129 6.87868 8.37868C7.44129 7.81607 8.20435 7.5 9 7.5H13.5" stroke="#B0A2FC" stroke-opacity="0.75" stroke-width="2" stroke-linecap="round" stroke-linejoin="round"/>
</svg>
