<svg width="26" height="26" viewBox="0 0 26 26" fill="none" xmlns="http://www.w3.org/2000/svg">
<path d="M13 0C10.4288 0 7.91543 0.762437 5.77759 2.19089C3.63975 3.61935 1.97351 5.64968 0.989572 8.02511C0.00563264 10.4006 -0.251811 13.0144 0.249797 15.5362C0.751405 18.0579 1.98953 20.3743 3.80762 22.1924C5.6257 24.0105 7.94208 25.2486 10.4638 25.7502C12.9856 26.2518 15.5994 25.9944 17.9749 25.0104C20.3503 24.0265 22.3806 22.3602 23.8091 20.2224C25.2376 18.0846 26 15.5712 26 13C25.9961 9.55339 24.6252 6.24907 22.188 3.81195C19.7509 1.37483 16.4466 0.00393224 13 0ZM13 24.1429C10.0447 24.1429 7.21051 22.9689 5.12081 20.8792C3.03112 18.7895 1.85715 15.9553 1.85715 13C1.85715 10.0447 3.03112 7.2105 5.12081 5.12081C7.21051 3.03112 10.0447 1.85714 13 1.85714V13L20.8752 20.8752C19.8424 21.9117 18.6151 22.7339 17.2636 23.2947C15.9121 23.8554 14.4632 24.1437 13 24.1429Z" fill="#B0A2FC"/>
</svg>
