<svg width="26" height="26" viewBox="0 0 26 26" fill="none" xmlns="http://www.w3.org/2000/svg">
<path d="M18.8036 0C16.4067 0 14.3081 1.20278 13 3.23587C11.6919 1.20278 9.5933 0 7.19643 0C5.28848 0.00250951 3.45929 0.888083 2.11016 2.46243C0.761034 4.03679 0.0021505 6.17135 0 8.39781C0 17.8792 12.0471 25.5537 12.5601 25.8707C12.6953 25.9556 12.8465 26 13 26C13.1535 26 13.3047 25.9556 13.4399 25.8707C13.9529 25.5537 26 17.8792 26 8.39781C25.9978 6.17135 25.239 4.03679 23.8898 2.46243C22.5407 0.888083 20.7115 0.00250951 18.8036 0ZM13 23.6764C10.8805 22.2352 1.85714 15.67 1.85714 8.39781C1.85899 6.74601 2.42211 5.16247 3.42302 3.99446C4.42393 2.82646 5.78093 2.16933 7.19643 2.16718C9.45402 2.16718 11.3495 3.57043 12.1411 5.82429C12.211 6.02303 12.33 6.19302 12.483 6.31265C12.6359 6.43228 12.8159 6.49615 13 6.49615C13.1841 6.49615 13.3641 6.43228 13.517 6.31265C13.67 6.19302 13.789 6.02303 13.8589 5.82429C14.6505 3.56636 16.546 2.16718 18.8036 2.16718C20.2191 2.16933 21.5761 2.82646 22.577 3.99446C23.5779 5.16247 24.141 6.74601 24.1429 8.39781C24.1429 15.6592 15.1171 22.2339 13 23.6764Z" fill="#B0A2FC"/>
</svg>
