<svg width="36" height="36" viewBox="0 0 36 36" fill="none" xmlns="http://www.w3.org/2000/svg">
<path d="M0 3.50591C0 0.689915 3.156 -0.974085 5.48 0.617915L26.474 15.0059C26.9413 15.3262 27.3238 15.7551 27.5888 16.2559C27.8537 16.7566 27.9932 17.3142 27.9951 17.8807C27.9971 18.4472 27.8615 19.0057 27.6001 19.5082C27.3386 20.0108 26.959 20.4424 26.494 20.7659L5.496 35.3699C3.176 36.9839 -0.0019989 35.3219 -0.0019989 32.4959L0 3.50591ZM3.782 3.09392C3.70695 3.04319 3.61954 3.0138 3.52909 3.00889C3.43864 3.00398 3.34856 3.02374 3.26847 3.06604C3.18837 3.10835 3.12128 3.17162 3.07434 3.24909C3.02741 3.32657 3.00241 3.41533 3.002 3.50591V32.4959C3.00227 32.587 3.02741 32.6762 3.07469 32.754C3.12197 32.8319 3.18961 32.8953 3.27029 32.9375C3.35098 32.9797 3.44165 32.999 3.53254 32.9935C3.62342 32.9879 3.71106 32.9576 3.786 32.9059L24.78 18.3039C24.8467 18.2578 24.9012 18.1962 24.9388 18.1243C24.9764 18.0524 24.9959 17.9725 24.9957 17.8914C24.9955 17.8103 24.9756 17.7305 24.9377 17.6588C24.8997 17.5871 24.8449 17.5257 24.778 17.4799L3.78 3.09392H3.782ZM36 1.49992C36 1.10209 35.842 0.72056 35.5607 0.439255C35.2794 0.15795 34.8978 -8.4573e-05 34.5 -8.4573e-05C34.1022 -8.4573e-05 33.7206 0.15795 33.4393 0.439255C33.158 0.72056 33 1.10209 33 1.49992V34.4999C33 34.8977 33.158 35.2793 33.4393 35.5606C33.7206 35.8419 34.1022 35.9999 34.5 35.9999C34.8978 35.9999 35.2794 35.8419 35.5607 35.5606C35.842 35.2793 36 34.8977 36 34.4999V1.49992Z" fill="#B0A2FC"/>
</svg>
