<svg width="56" height="56" viewBox="0 0 56 56" fill="none" xmlns="http://www.w3.org/2000/svg">
<rect x="2" y="2" width="52" height="52" rx="10" fill="#B0A2FC" fill-opacity="0.24"/>
<path d="M8 36.5003C7.60218 36.5003 7.22064 36.6583 6.93934 36.9396C6.65804 37.221 6.5 37.6025 6.5 38.0003C6.5 38.3981 6.65804 38.7797 6.93934 39.061C7.22064 39.3423 7.60218 39.5003 8 39.5003V36.5003ZM48 18.0003L49.06 19.0603C49.3409 18.7791 49.4987 18.3978 49.4987 18.0003C49.4987 17.6028 49.3409 17.2216 49.06 16.9403L48 18.0003ZM42.94 20.9403C42.675 21.2247 42.5308 21.6007 42.5377 21.9894C42.5445 22.378 42.7019 22.7487 42.9768 23.0236C43.2516 23.2984 43.6224 23.4558 44.011 23.4627C44.3996 23.4695 44.7757 23.3253 45.06 23.0603L42.94 20.9403ZM45.06 12.9403C44.9227 12.7929 44.7571 12.6747 44.5731 12.5927C44.3891 12.5108 44.1904 12.4667 43.989 12.4631C43.7876 12.4596 43.5876 12.4966 43.4008 12.5721C43.214 12.6475 43.0444 12.7598 42.9019 12.9022C42.7595 13.0447 42.6472 13.2143 42.5718 13.4011C42.4963 13.5879 42.4593 13.7879 42.4628 13.9894C42.4664 14.1908 42.5105 14.3894 42.5924 14.5734C42.6744 14.7574 42.7926 14.923 42.94 15.0603L45.06 12.9403ZM34.44 18.7803L33.702 17.4743L34.442 18.7783L34.44 18.7803ZM8 39.5003H15.206V36.5003H8V39.5003ZM26.78 32.9463L31.79 24.5983L29.218 23.0543L24.21 31.4023L26.78 32.9463ZM40.794 19.5003H48V16.5003H40.794V19.5003ZM46.94 16.9403L42.94 20.9403L45.06 23.0603L49.06 19.0603L46.94 16.9403ZM49.06 16.9403L45.06 12.9403L42.94 15.0603L46.94 19.0603L49.06 16.9403ZM31.79 24.5983C32.658 23.1503 33.258 22.1583 33.802 21.4203C34.328 20.7103 34.738 20.3343 35.18 20.0843L33.702 17.4743C32.768 18.0023 32.062 18.7283 31.392 19.6343C30.74 20.5143 30.056 21.6563 29.218 23.0543L31.79 24.5983ZM40.794 16.5003C39.164 16.5003 37.834 16.5003 36.744 16.6043C35.62 16.7143 34.636 16.9443 33.702 17.4743L35.18 20.0843C35.62 19.8343 36.154 19.6763 37.034 19.5903C37.946 19.5023 39.106 19.5003 40.794 19.5003V16.5003ZM15.206 39.5003C16.836 39.5003 18.166 39.5003 19.256 39.3963C20.38 39.2863 21.364 39.0563 22.298 38.5263L20.82 35.9163C20.38 36.1663 19.846 36.3243 18.966 36.4103C18.054 36.4983 16.894 36.5003 15.206 36.5003V39.5003ZM24.21 31.4023C23.34 32.8503 22.742 33.8423 22.198 34.5803C21.672 35.2903 21.262 35.6663 20.82 35.9163L22.298 38.5263C23.23 37.9983 23.938 37.2723 24.608 36.3663C25.26 35.4863 25.942 34.3443 26.78 32.9463L24.21 31.4023ZM8 16.5003C7.60218 16.5003 7.22064 16.6583 6.93934 16.9396C6.65804 17.221 6.5 17.6025 6.5 18.0003C6.5 18.3981 6.65804 18.7797 6.93934 19.061C7.22064 19.3423 7.60218 19.5003 8 19.5003V16.5003ZM48 38.0003L49.06 39.0603C49.3409 38.7791 49.4987 38.3978 49.4987 38.0003C49.4987 37.6028 49.3409 37.2216 49.06 36.9403L48 38.0003ZM45.06 32.9403C44.9227 32.7929 44.7571 32.6747 44.5731 32.5927C44.3891 32.5108 44.1904 32.4667 43.989 32.4631C43.7876 32.4596 43.5876 32.4966 43.4008 32.5721C43.214 32.6475 43.0444 32.7598 42.9019 32.9022C42.7595 33.0447 42.6472 33.2143 42.5718 33.4011C42.4963 33.5879 42.4593 33.7879 42.4628 33.9894C42.4664 34.1908 42.5105 34.3894 42.5924 34.5734C42.6744 34.7574 42.7926 34.923 42.94 35.0603L45.06 32.9403ZM42.94 40.9403C42.7926 41.0776 42.6744 41.2432 42.5924 41.4272C42.5105 41.6112 42.4664 41.8099 42.4628 42.0113C42.4593 42.2127 42.4963 42.4127 42.5718 42.5995C42.6472 42.7863 42.7595 42.9559 42.9019 43.0984C43.0444 43.2408 43.214 43.3531 43.4008 43.4286C43.5876 43.504 43.7876 43.541 43.989 43.5375C44.1904 43.5339 44.3891 43.4899 44.5731 43.4079C44.7571 43.3259 44.9227 43.2077 45.06 43.0603L42.94 40.9403ZM32.886 33.2303C32.789 33.0533 32.6573 32.8977 32.4988 32.7728C32.3403 32.6479 32.1582 32.5562 31.9634 32.5034C31.7686 32.4505 31.5652 32.4375 31.3653 32.4651C31.1654 32.4927 30.9731 32.5604 30.7999 32.664C30.6268 32.7677 30.4763 32.9053 30.3576 33.0685C30.2388 33.2317 30.1542 33.4171 30.1089 33.6138C30.0635 33.8105 30.0583 34.0142 30.0935 34.213C30.1288 34.4117 30.2038 34.6013 30.314 34.7703L32.886 33.2303ZM19.75 18.1123L20.036 16.6383L19.75 18.1103V18.1123ZM23.114 22.7723C23.3208 23.1092 23.6521 23.3508 24.0361 23.4447C24.42 23.5385 24.8255 23.4771 25.1644 23.2737C25.5033 23.0702 25.7482 22.7412 25.8458 22.3583C25.9435 21.9753 25.8861 21.5692 25.686 21.2283L23.114 22.7723ZM8 19.5003H17.336V16.5003H8V19.5003ZM38.664 39.5003H48V36.5003H38.664V39.5003ZM49.06 36.9403L45.06 32.9403L42.94 35.0603L46.94 39.0603L49.06 36.9403ZM46.94 36.9403L42.94 40.9403L45.06 43.0603L49.06 39.0603L46.94 36.9403ZM38.664 36.5003C37.374 36.5003 36.93 36.4943 36.538 36.4183L35.964 39.3623C36.708 39.5063 37.494 39.5003 38.664 39.5003V36.5003ZM30.314 34.7703C30.914 35.7743 31.314 36.4523 31.822 37.0163L34.052 35.0103C33.784 34.7123 33.552 34.3363 32.886 33.2303L30.314 34.7703ZM36.538 36.4183C35.5784 36.2315 34.7057 35.7372 34.052 35.0103L31.822 37.0163C32.9113 38.2273 34.3652 39.0508 35.964 39.3623L36.538 36.4183ZM17.336 19.5003C18.626 19.5003 19.07 19.5063 19.462 19.5823L20.036 16.6383C19.292 16.4943 18.506 16.5003 17.336 16.5003V19.5003ZM25.686 21.2283C25.086 20.2243 24.686 19.5483 24.178 18.9843L21.948 20.9903C22.216 21.2883 22.448 21.6663 23.114 22.7723L25.686 21.2283ZM19.462 19.5823C20.422 19.7703 21.294 20.2623 21.948 20.9903L24.178 18.9843C23.0887 17.7733 21.6348 16.9498 20.036 16.6383L19.462 19.5823Z" fill="#B0A2FC"/>
<rect x="2" y="2" width="52" height="52" rx="10" stroke="#B0A2FC" stroke-width="4"/>
</svg>
