<svg width="36" height="36" viewBox="0 0 36 36" fill="none" xmlns="http://www.w3.org/2000/svg">
<path d="M12 6H9C8.20435 6 7.44129 6.31607 6.87868 6.87868C6.31607 7.44129 6 8.20435 6 9V27C6 27.7956 6.31607 28.5587 6.87868 29.1213C7.44129 29.6839 8.20435 30 9 30H27C27.7956 30 28.5587 29.6839 29.1213 29.1213C29.6839 28.5587 30 27.7956 30 27V11.742C29.9998 10.9464 29.6836 10.1835 29.121 9.621L26.379 6.879C25.8165 6.31635 25.0536 6.00017 24.258 6H22.5M12 6V12C12 12.3978 12.158 12.7794 12.4393 13.0607C12.7206 13.342 13.1022 13.5 13.5 13.5H21C21.3978 13.5 21.7794 13.342 22.0607 13.0607C22.342 12.7794 22.5 12.3978 22.5 12V6M12 6H22.5M10.5 25.5V21C10.5 20.6022 10.658 20.2206 10.9393 19.9393C11.2206 19.658 11.6022 19.5 12 19.5H24C24.3978 19.5 24.7794 19.658 25.0607 19.9393C25.342 20.2206 25.5 20.6022 25.5 21V25.5" stroke="#B0A2FC" stroke-opacity="0.75" stroke-width="2" stroke-linecap="round" stroke-linejoin="round"/>
</svg>
