<svg width="22" height="23" viewBox="0 0 22 23" fill="none" xmlns="http://www.w3.org/2000/svg">
<g clip-path="url(#clip0_507_391)">
<path d="M6.69593 1.5H4.30454C3.82628 1.5 2.41713 1.50028 2.16092 1.76912C1.68266 2.26912 1.43506 3 1.43506 3.5V19C1.43506 19.6962 2.16517 20.7389 2.61363 21.2312C3.3481 21.5 3.67032 21.5 4.30454 21.5H18.6524C19.2867 21.5 19.8948 21.7234 20.3433 21.2312C20.7917 20.7389 20.5655 20.1962 20.5655 19.5V6C20.5654 5.30386 20.5655 4.5 20.343 4.16838L18.1574 1.76912C17.6959 1.5 16.8953 1.50052 16.2611 1.50037L15.0654 1.5M6.69593 1.5L6.69584 6.25C6.69584 6.5981 6.82181 6.93194 7.04604 7.17808C7.27027 7.42422 7.57439 7.5625 7.89149 7.5625H13.8698C14.1869 7.5625 14.491 7.42422 14.7152 7.17808C14.9394 6.93194 15.0654 6.5981 15.0654 6.25V1.5M6.69593 1.5H15.0654M5.50019 18.0625V14.125C5.50019 13.7769 5.62616 13.4431 5.85039 13.1969C6.07462 12.9508 6.37873 12.8125 6.69584 12.8125H15.3045C15.6216 12.8125 15.9258 12.9508 16.15 13.1969C16.3742 13.4431 16.5002 13.7769 16.5002 14.125V18.0625" stroke="#B0A2FC" stroke-width="3" stroke-linecap="round" stroke-linejoin="round"/>
</g>
<defs>
<clipPath id="clip0_507_391">
<rect width="22" height="23" fill="white"/>
</clipPath>
</defs>
</svg>
