<svg width="26" height="26" viewBox="0 0 26 26" fill="none" xmlns="http://www.w3.org/2000/svg">
<path d="M14.4092 24.9773C36.0345 8.81928 22.1929 -3.73173 14.5132 1.01585L11.3754 5.20009L13.8128 12.1334L10.5629 17.3334L13.0003 26C13.4743 25.666 13.944 25.3251 14.4092 24.9773ZM13.9168 23.2267L12.339 17.6159L15.1664 13.0954C15.3091 12.8665 15.3986 12.6048 15.4277 12.3317C15.4568 12.0587 15.4246 11.7822 15.3338 11.525L13.2213 5.51383L15.5776 2.37131C18.6017 0.728114 22.8023 2.37477 24.0226 6.02862C25.1455 9.39127 23.9332 15.5983 13.9168 23.2267ZM11.8856 25.1975C11.0455 24.5758 10.2208 23.9308 9.41237 23.2631C-8.24961 8.61475 2.99367 -2.55134 10.4881 0.507982C10.9984 0.715981 11.4924 0.991579 11.9571 1.33478L8.93787 5.20009L11.3754 12.1334L8.93787 17.3334L11.8856 25.1975ZM8.14813 19.8935L7.42988 17.9764C7.34479 17.7493 7.30572 17.5056 7.31524 17.2612C7.32477 17.0168 7.38267 16.7774 7.48513 16.5586L9.60574 12.0346L7.41689 5.80676C7.31619 5.52022 7.28841 5.21035 7.33635 4.90865C7.3843 4.60695 7.50628 4.32416 7.68988 4.08903L9.36687 1.93971C6.62389 1.16145 3.35442 2.62957 2.12593 5.62823C0.970565 8.44835 1.45481 13.5149 8.14813 19.8918V19.8935Z" fill="#B0A2FC"/>
</svg>
