<svg width="30" height="27" viewBox="0 0 30 27" fill="none" xmlns="http://www.w3.org/2000/svg">
<g clip-path="url(#clip0_430_183)">
<path d="M0.732988 24.8049L13.7327 0.843945C14.1099 0.148536 15.2075 0.139255 15.5992 0.828177L29.2228 24.7891C29.5781 25.414 29.0738 26.156 28.2939 26.156H1.67061C0.899277 26.156 0.394551 25.4288 0.732988 24.8049Z" fill="#FFB636"/>
<path d="M16.6601 9.12283L15.9463 17.7448C15.8929 18.3899 15.2685 18.8739 14.5517 18.8258C13.9004 18.7821 13.3971 18.3139 13.3506 17.7448L12.6368 9.12283C12.554 8.12293 13.3875 7.25192 14.4985 7.17746C15.6095 7.103 16.5773 7.85315 16.6601 8.85304C16.6673 8.94069 16.6664 9.03761 16.6601 9.12283ZM14.6484 20.665C13.627 20.665 12.799 21.4102 12.799 22.3295C12.799 23.2487 13.627 23.9939 14.6484 23.9939C15.6698 23.9939 16.4979 23.2487 16.4979 22.3294C16.4979 21.4102 15.6698 20.665 14.6484 20.665Z" fill="#2B3B47"/>
</g>
<defs>
<clipPath id="clip0_430_183">
<rect width="30" height="27" fill="white"/>
</clipPath>
</defs>
</svg>
